PathFileType	4	(X/Y/Z)	c:/Users/goper/Files/vsCode/490R/osim_files/C05/C05_SSWS_05.trc
DataRate	CameraRate	NumFrames	NumMarkers	Units                	OrigDataRate	OrigDataStartFrame	OrigNumFrames
250.00	250.00	9	36	mm	250.0	1391	2781
                Frame#	Time	LPSIS			LASIS			LTH1			LTH2			LTH3			LTH4			LLFE			LMFE			LSH1			LSH2			LSH3			LSH4			LLMAL			LMMAL			LCAL			LMTP5			LTOE			LMTP1			RPSIS			RASIS			RTH1			RTH2			RTH3			RTH4			RLFE			RMFE			RSH1			RSH2			RSH3			RSH4			RLMAL			RMMAL			RCAL			RMTP1			RTOE			RMTP5		
		X1	Y1	Z1	X2	Y2	Z2	X3	Y3	Z3	X4	Y4	Z4	X5	Y5	Z5	X6	Y6	Z6	X7	Y7	Z7	X8	Y8	Z8	X9	Y9	Z9	X10	Y10	Z10	X11	Y11	Z11	X12	Y12	Z12	X13	Y13	Z13	X14	Y14	Z14	X15	Y15	Z15	X16	Y16	Z16	X17	Y17	Z17	X18	Y18	Z18	X19	Y19	Z19	X20	Y20	Z20	X21	Y21	Z21	X22	Y22	Z22	X23	Y23	Z23	X24	Y24	Z24	X25	Y25	Z25	X26	Y26	Z26	X27	Y27	Z27	X28	Y28	Z28	X29	Y29	Z29	X30	Y30	Z30	X31	Y31	Z31	X32	Y32	Z32	X33	Y33	Z33	X34	Y34	Z34	X35	Y35	Z35	X36	Y36	Z36

1391	5.56000	387.48389	1036.83667	297.57419	195.17735	1006.35724	370.48672	230.83235	678.75171	403.48508	204.28677	620.92059	397.89853	159.54927	702.76306	416.79956	142.19505	643.54657	408.85858	134.30185	534.38165	392.19141	119.05615	524.26062	268.49969	297.56271	465.30728	378.00699	326.29453	432.11954	375.27542	258.11966	420.82758	402.96463	292.40475	394.57648	395.42407	472.88440	263.12936	355.05484	436.22113	239.90555	277.85468	528.04999	279.44675	291.13943	438.50128	123.01744	406.00858	384.14673	107.74545	350.38574	401.04453	98.74669	302.24060	374.40244	1050.61145	189.71217	175.57378	1021.60309	141.71710	230.08282	668.74554	90.20018	208.95137	611.66284	110.42227	158.09431	690.69360	101.39699	147.98039	630.55646	117.51266	0.00000	0.00000	0.00000	156.72243	534.08209	139.75401	241.29330	376.99683	116.04729	239.53250	329.21683	122.64375	180.72713	371.57239	126.71075	187.39066	325.54895	132.18555	249.08188	98.96749	170.69614	228.66289	110.16576	256.65002	312.69183	71.35820	218.65465	95.45512	42.44379	246.80620	75.34509	66.34953	198.47612	124.50646	37.33527	134.70920
1392	5.56400	383.50009	1037.13074	297.47595	191.21672	1006.91541	370.20984	224.21899	679.64587	403.64487	197.18219	622.04834	398.04337	153.22375	704.38373	416.89114	135.26282	645.26569	408.99249	126.28373	536.25098	392.23367	110.70795	526.44263	268.50891	288.87329	465.49347	378.37955	317.00632	431.84085	375.66428	248.65742	421.35165	403.17001	282.62970	394.68042	395.72668	461.55087	260.95731	355.80075	424.51874	238.35541	278.64224	517.41901	276.55240	292.19101	425.01309	121.31112	406.36731	370.80515	106.85233	350.31091	387.53021	97.55599	302.38504	370.44202	1050.92676	189.62239	171.66296	1021.96899	141.31288	228.06308	668.95636	90.03601	207.16136	611.68158	110.27897	155.87271	690.46228	101.05064	146.01604	630.21405	117.20662	0.00000	0.00000	0.00000	155.45808	533.78015	139.42085	240.85500	377.16534	115.99707	239.08020	329.29059	122.59464	180.17436	371.36227	126.41144	186.95041	325.41745	131.89015	248.99875	98.99902	170.75861	228.58958	110.14216	256.65158	312.64948	71.40220	218.69917	95.43069	42.38883	246.82205	75.29560	66.24312	198.44061	124.50524	37.27964	134.68037
1393	5.56800	379.52002	1037.39661	297.40714	187.03079	1007.59625	369.84000	217.67133	680.57227	403.85559	190.23750	623.24957	398.29398	146.96709	706.01379	417.00720	128.45921	646.99731	409.11505	118.23847	538.04761	392.12784	102.72765	528.50977	268.44916	279.78171	465.36127	378.68503	307.77490	431.53452	376.11282	239.24147	421.80319	403.40775	272.91943	394.80228	396.06586	449.90643	258.37701	356.79260	413.32132	236.78015	279.15665	506.69684	273.47110	293.26913	410.98856	119.27216	406.43878	357.11179	106.08950	350.23099	374.12442	96.56020	302.36240	366.46289	1051.23926	189.52901	167.65338	1022.33002	140.99585	226.00369	669.14130	89.82777	205.25241	611.70123	110.10013	153.66336	690.19495	100.73724	144.09212	629.87280	116.87563	0.00000	0.00000	0.00000	154.05170	533.48297	139.03479	240.26549	377.20999	115.92303	238.69066	329.47366	122.47272	179.45648	371.24271	126.09443	186.41486	325.35818	131.58694	248.91713	99.04281	170.81625	228.14771	110.32783	256.82458	312.57117	71.42234	218.75034	95.39146	42.34487	246.82222	75.24942	66.16038	198.43562	124.52367	37.26398	134.65805
1394	5.57200	375.54089	1037.67542	297.35925	183.07472	1008.17169	369.63098	211.24730	681.49194	404.08554	183.32426	624.40759	398.44937	140.61691	707.61255	417.10196	121.65322	648.77094	409.21426	110.34054	539.96991	392.08008	94.83954	530.69604	268.55511	270.93188	465.27567	379.07007	298.70444	431.16876	376.66446	229.81226	422.18039	403.65558	263.19531	394.73758	396.31485	438.45853	255.86703	357.39456	401.99686	234.92567	279.52780	495.95062	270.21280	294.40948	397.04132	117.29142	406.76114	343.48224	105.29199	350.39279	360.33572	95.24356	302.48322	362.52600	1051.56250	189.49332	163.43970	1022.61908	140.71721	224.49327	669.87457	89.78030	203.49731	611.74689	109.96220	151.46790	689.89587	100.46114	142.31496	629.64679	116.43745	0.00000	0.00000	0.00000	152.78752	533.34900	138.62212	239.68303	377.26721	115.76619	238.10812	329.47855	122.39426	178.91974	371.14603	125.76788	185.86363	325.26038	131.31252	248.85254	99.07827	170.86913	228.26959	109.80698	257.03186	312.52582	71.50348	218.77139	95.38387	42.33113	246.83318	75.20542	66.08755	198.42461	124.54292	37.24826	134.63019
1395	5.57600	371.55347	1037.92090	297.34442	179.08513	1008.80914	369.32565	204.84747	682.45691	404.33109	176.36031	625.58441	398.67014	134.43924	709.23407	417.16373	114.89835	650.53015	409.33627	102.58257	541.86731	392.08295	87.08749	532.90265	268.45447	262.11554	465.07510	379.61325	289.48553	430.63260	377.18558	220.37732	422.46109	403.83234	253.61845	394.74362	396.67010	426.96014	253.27583	358.08615	390.61087	233.08009	280.05154	484.92743	266.65472	295.49359	382.92737	115.29938	407.02594	329.44330	104.11320	350.21103	346.63513	94.06120	302.44772	358.63892	1051.85547	189.46794	160.65263	1022.73584	140.42041	222.62407	670.09686	89.59641	201.69688	611.76929	109.78175	149.35432	689.65381	100.12406	140.45082	629.37445	116.01978	0.00000	0.00000	0.00000	151.68594	533.24579	138.31192	238.86716	377.24774	115.64863	237.53546	329.53009	122.22501	178.18689	371.03934	125.42455	185.31956	325.15103	131.01898	248.77760	99.15817	170.90582	228.14764	110.06612	256.94489	312.29318	71.56570	218.83110	95.37617	42.32663	246.87036	75.16645	66.02617	198.42760	124.54973	37.24684	134.58842
1396	5.58000	367.54529	1038.17480	297.36264	175.02376	1009.35571	368.94745	198.57500	683.45435	404.61432	169.28554	627.48535	399.18286	128.35411	710.87573	417.24289	108.23404	652.28241	409.45258	94.78421	543.72107	392.00540	79.40437	535.06445	268.47247	253.50870	464.82187	380.13202	280.32443	430.00436	377.71933	211.11252	422.72684	404.01938	243.97443	394.55716	396.94434	415.31436	250.53232	358.78989	379.13110	231.03065	280.55942	473.90363	263.05090	296.53860	368.76224	113.31625	407.40701	315.59750	103.01115	350.17609	332.66019	92.77950	302.55783	354.76636	1052.18457	189.46239	156.59746	1023.19202	140.09341	220.63600	670.34430	89.42617	199.97037	611.79822	109.50666	147.40730	689.57837	99.60217	138.68518	629.15131	115.54414	0.00000	0.00000	0.00000	150.14085	532.96765	137.83156	238.19241	377.37045	115.42338	236.98587	329.58054	122.07689	177.51118	370.92075	125.17478	184.78906	325.09906	130.73050	248.71640	99.21217	170.92973	228.08766	110.11755	256.91336	312.51001	71.56298	218.84137	95.36994	42.31321	246.84045	74.91766	65.93179	198.66650	124.53615	37.21565	134.57100
1397	5.58400	363.59079	1038.43384	297.38055	171.03311	1009.88104	368.66135	192.30507	684.40198	404.95380	162.45404	628.74377	399.36716	122.47645	712.61237	417.45306	101.56927	654.05341	409.53311	87.17179	545.62305	391.88608	72.03855	537.10596	268.41501	244.91919	464.46848	380.64282	271.21436	429.30099	378.32120	201.73241	422.86285	404.22037	234.28770	394.30145	397.27133	403.66522	247.72543	359.49475	367.47687	228.87567	281.07135	462.80048	259.29199	297.59872	354.46021	111.20573	407.72083	301.58609	102.11519	350.28934	318.64227	91.47171	302.63489	350.89413	1052.49304	189.47536	152.80878	1023.43524	139.80003	218.82315	670.58710	89.28101	198.14798	611.80847	109.25977	145.58708	689.63391	98.92168	136.97969	628.88855	115.03931	0.00000	0.00000	0.00000	149.00180	532.75433	137.37419	237.38623	377.40845	115.19477	236.31537	329.60269	121.88759	176.64914	370.75485	124.73621	184.26640	325.05402	130.51039	248.66888	99.28430	170.95146	228.02792	110.21577	256.88855	312.51575	71.62313	218.86232	95.37816	42.25673	246.80849	75.04584	65.79831	198.54933	124.52430	37.20935	134.53136
1398	5.58800	359.60818	1038.69226	297.46851	166.72461	1010.60101	368.28555	186.09038	685.45789	405.28546	155.60872	629.99933	399.62604	116.18158	714.02087	417.37863	94.94051	655.84906	409.59863	79.62107	547.48633	391.80338	59.00584	540.79266	268.19351	236.27509	463.95538	381.26428	262.15079	428.43213	378.93304	192.32632	422.92661	404.43420	224.60876	393.96140	397.60599	391.92252	244.74652	360.22531	355.76947	226.64241	281.68008	451.50992	255.27325	298.66177	339.98962	109.16930	408.09546	287.69284	100.90667	350.29330	304.32504	90.08745	302.81107	347.01489	1052.77051	189.54749	148.86342	1023.67999	139.36484	216.94025	670.84076	89.07838	196.52591	611.83246	108.96667	143.35655	689.20306	98.70942	135.34229	628.67834	114.49269	0.00000	0.00000	0.00000	148.16235	532.62476	136.98029	236.62418	377.41791	114.93337	235.62872	329.68082	121.67458	176.04779	370.72620	124.60610	183.58394	324.97165	130.24939	248.61919	99.32859	170.97142	227.96997	110.30291	256.83749	312.48953	71.73685	218.84683	95.30786	42.27105	246.76950	75.01369	65.75376	198.50371	124.52142	37.19339	134.50562
1399	5.59200	355.64633	1038.91992	297.55502	162.66653	1011.10138	367.89716	179.90578	686.42517	405.64767	148.82253	631.23456	399.85852	110.05791	715.63226	417.43356	88.35369	657.65509	409.58459	72.14080	549.34399	391.66513	52.09331	542.87988	268.26526	227.83481	463.37582	381.78613	253.21599	427.51895	379.59589	183.07397	422.92825	404.57919	214.70822	393.39255	397.76990	380.16092	241.70605	360.89774	343.97702	224.34558	282.15173	439.59732	250.96327	299.68472	325.31934	107.01263	408.43857	272.67834	99.90833	350.18314	289.75455	88.58251	303.20743	343.18234	1053.05310	189.60915	145.04243	1024.02234	138.88760	215.10522	671.07782	88.92791	194.69472	611.79333	108.69565	140.51131	688.21289	99.12724	133.62766	628.42151	114.03760	0.00000	0.00000	0.00000	147.08705	532.42334	136.47131	236.40186	377.81573	114.22594	234.99632	329.78671	121.38158	175.11716	370.62653	124.31284	182.85626	324.85382	130.08665	248.58917	99.38366	170.97740	227.86520	110.37312	256.79248	312.50262	71.83482	218.82254	95.27859	42.27399	246.70984	74.99114	65.71563	198.45598	124.33596	37.07084	134.41374
